HIERARCHY
ROOT Hips
{
 OFFSET 0.000000 0.000000 0.000000
 CHANNELS 6 Xposition Yposition Zposition Yrotation Xrotation Zrotation
 JOINT Chest
 {
  OFFSET 0.000000 9.585900 0.002600
  CHANNELS 3 Yrotation Xrotation Zrotation
  JOINT Chest2
  {
   OFFSET 0.000000 9.601200 -0.005300
   CHANNELS 3 Yrotation Xrotation Zrotation
   JOINT Chest3
   {
    OFFSET 0.000000 9.561800 0.000000
    CHANNELS 3 Yrotation Xrotation Zrotation
    JOINT Chest4
    {
     OFFSET 0.000000 9.552100 0.000000
     CHANNELS 3 Yrotation Xrotation Zrotation
     JOINT Neck
     {
      OFFSET 0.000000 14.453000 0.000000
      CHANNELS 3 Yrotation Xrotation Zrotation
      JOINT Head
      {
       OFFSET 0.000000 8.936500 -0.011300
       CHANNELS 3 Yrotation Xrotation Zrotation
       End Site
       {
        OFFSET 0.000000 17.073600 -0.006000
       }
      }
     }
     JOINT RightCollar
     {
      OFFSET -2.921100 9.558500 0.000000
      CHANNELS 3 Yrotation Xrotation Zrotation
      JOINT RightShoulder
      {
       OFFSET -13.519700 0.000000 0.000000
       CHANNELS 3 Yrotation Xrotation Zrotation
       JOINT RightElbow
       {
        OFFSET 0.000000 -29.696600 0.000000
        CHANNELS 3 Yrotation Xrotation Zrotation
        JOINT RightWrist
        {
         OFFSET 0.000000 -24.004700 0.000000
         CHANNELS 3 Yrotation Xrotation Zrotation
         End Site
         {
          OFFSET 0.000000 -17.728500 0.000000
         }
        }
       }
      }
     }
     JOINT LeftCollar
     {
      OFFSET 2.921100 9.558500 0.000000
      CHANNELS 3 Yrotation Xrotation Zrotation
      JOINT LeftShoulder
      {
       OFFSET 13.519700 0.000000 0.000000
       CHANNELS 3 Yrotation Xrotation Zrotation
       JOINT LeftElbow
       {
        OFFSET 0.000000 -29.696600 0.000000
        CHANNELS 3 Yrotation Xrotation Zrotation
        JOINT LeftWrist
        {
         OFFSET 0.000000 -24.004700 0.000000
         CHANNELS 3 Yrotation Xrotation Zrotation
         End Site
         {
          OFFSET 0.000000 -17.728500 0.000000
         }
        }
       }
      }
     }
    }
   }
  }
 }
 JOINT RightHip
 {
  OFFSET -7.771700 -0.012900 -0.001300
  CHANNELS 3 Yrotation Xrotation Zrotation
  JOINT RightKnee
  {
   OFFSET 0.000000 -40.869800 0.001200
   CHANNELS 3 Yrotation Xrotation Zrotation
   JOINT RightAnkle
   {
    OFFSET 0.000000 -39.717900 0.002100
    CHANNELS 3 Yrotation Xrotation Zrotation
    JOINT RightToe
    {
     OFFSET 0.000000 -4.965400 11.033500
     CHANNELS 3 Yrotation Xrotation Zrotation
     End Site
     {
      OFFSET 0.000000 -1.423100 5.872300
     }
    }
   }
  }
 }
 JOINT LeftHip
 {
  OFFSET 7.771700 -0.012900 -0.001300
  CHANNELS 3 Yrotation Xrotation Zrotation
  JOINT LeftKnee
  {
   OFFSET 0.000000 -40.869800 0.001200
   CHANNELS 3 Yrotation Xrotation Zrotation
   JOINT LeftAnkle
   {
    OFFSET 0.000000 -39.717900 0.002100
    CHANNELS 3 Yrotation Xrotation Zrotation
    JOINT LeftToe
    {
     OFFSET 0.000000 -4.965400 11.033500
     CHANNELS 3 Yrotation Xrotation Zrotation
     End Site
     {
      OFFSET 0.000000 -1.423100 5.872300
     }
    }
   }
  }
 }
}
MOTION
Frames: 5
Frame Time: 0.008333
0.000000 85.388000 0.000000 0.000000 -5.767877 0.000000 0.000000 11.653817 0.000000 0.000000 -5.885947 0.000000 0.000000 -0.000000 0.000000 0.000000 -0.000000 0.000000 0.000000 12.528835 0.000000 0.000000 0.711642 0.000000 0.000000 -0.000000 0.000000 0.000000 0.000000 -90.000000 0.000000 -2.309062 0.000000 0.000000 2.309062 0.000000 0.000000 -0.000000 0.000000 0.000000 -0.000000 90.000000 0.000000 -2.309062 0.000000 0.000000 2.309062 0.000000 0.000000 8.520406 0.000000 0.000000 1.905762 0.000000 -0.000000 -4.658285 0.000000 0.000000 -0.000000 0.000000 0.000000 8.520406 0.000000 0.000000 1.905762 0.000000 -0.000000 -4.658285 0.000000 0.000000 -0.000000 0.000000
-47.125051 44.651716 25.527810 175.714356 -21.499997 -3.128920 -1.077635 16.466388 3.793669 -0.173298 1.744933 0.394504 -0.237762 2.862156 0.669102 -0.959002 14.585186 3.285906 0.412563 16.417476 -3.360639 1.198734 -8.431008 -3.640646 7.673981 2.782015 -4.080376 -5.488481 -7.253978 -5.984348 152.438721 -73.766295 -136.585554 -0.401210 3.058321 -33.490755 -13.938934 -0.896641 -5.489043 12.422812 -5.087160 0.771185 174.841912 -74.035752 169.158366 14.354770 14.788622 33.159174 -6.334312 -70.426667 18.176856 -143.467520 66.476862 -143.276787 -13.159122 -24.882155 10.703156 0.001445 0.393407 -0.193957 0.412909 -58.711569 1.323479 174.581644 62.261855 175.071847 -1.815622 -37.378833 2.960953 -0.010597 -0.156149 -0.049180
-47.123806 44.659435 25.512676 175.704110 -21.534365 -3.082530 -1.070680 16.491112 3.753803 -0.165556 1.734216 0.397400 -0.236713 2.861504 0.667154 -0.963711 14.579928 3.280076 0.399410 16.446697 -3.349614 1.184783 -8.400605 -3.627849 7.660472 2.800939 -4.075283 -5.535773 -7.235070 -5.959451 152.471555 -73.751554 -136.607642 -0.407111 3.063245 -33.488716 -13.932231 -0.889341 -5.493751 12.468638 -5.065317 0.757788 174.870405 -74.070374 169.127552 14.353082 14.775747 33.152519 -6.311343 -70.403306 18.151144 -143.445157 66.401286 -143.290878 -13.156899 -24.948372 10.743328 -0.020891 0.267006 -0.145011 0.445934 -58.669401 1.273937 174.583686 62.250480 175.058509 -1.814563 -37.416553 2.956215 -0.003351 -0.122945 -0.035316
-47.120797 44.660363 25.498346 175.709415 -21.553305 -3.048681 -1.076916 16.502048 3.720790 -0.134388 1.709832 0.405841 -0.267288 2.883470 0.659433 -0.951990 14.567169 3.278199 0.386073 16.477931 -3.338890 1.168256 -8.367664 -3.613552 7.658165 2.816238 -4.085471 -5.596474 -7.214550 -5.923622 152.511362 -73.738823 -136.635502 -0.426487 3.076946 -33.504081 -13.917010 -0.893732 -5.497891 12.556355 -5.052607 0.736788 174.884759 -74.128975 169.058192 14.351129 14.758692 33.146346 -6.284056 -70.385600 18.106251 -143.419869 66.340408 -143.286839 -13.167792 -25.013004 10.776167 -0.005595 0.197793 -0.115829 0.483819 -58.639674 1.219250 174.573733 62.228000 175.048403 -1.822592 -37.445804 2.956493 -0.000068 -0.118610 -0.032610
-47.120780 44.649744 25.487592 175.719659 -21.539005 -2.999996 -1.057488 16.457194 3.692221 -0.156735 1.723145 0.397893 -0.279394 2.888158 0.657750 -0.937787 14.556919 3.275973 0.374489 16.511051 -3.326933 1.153292 -8.332741 -3.598307 7.672452 2.808030 -4.110591 -5.669193 -7.170233 -5.875404 152.544342 -73.723950 -136.654585 -0.430678 3.077082 -33.503216 -13.889026 -0.906747 -5.500327 12.587937 -5.032163 0.730059 174.878042 -74.166132 169.016473 14.346572 14.759902 33.187478 -6.191005 -70.400356 17.990339 -143.406138 66.311935 -143.283838 -13.173824 -25.016712 10.781941 0.033358 0.116668 -0.085863 0.552750 -58.648696 1.127017 174.579638 62.209153 175.049935 -1.827062 -37.447979 2.963773 0.001196 -0.134176 -0.030834
